<?xml version="1.0" standalone="no"?>
<!DOCTYPE svg PUBLIC "-//W3C//DTD SVG 20010904//EN"
 "http://www.w3.org/TR/2001/REC-SVG-20010904/DTD/svg10.dtd">
<svg version="1.0" xmlns="http://www.w3.org/2000/svg"
 width="595.000000pt" height="595.000000pt" viewBox="0 0 595.000000 595.000000"
 preserveAspectRatio="xMidYMid meet">
<metadata>
Created by potrace 1.11, written by Peter Selinger 2001-2013
</metadata>
<g transform="translate(0.000000,595.000000) scale(0.100000,-0.100000)"
fill="#000000" stroke="none">
<path d="M2684 5575 c-230 -30 -420 -77 -614 -152 -159 -61 -356 -160 -374
-187 -8 -13 -38 -38 -68 -57 -29 -19 -62 -42 -73 -51 -11 -9 -63 -48 -115 -87
-156 -116 -372 -322 -375 -359 0 -9 -15 -37 -33 -61 -18 -24 -32 -47 -32 -50
0 -9 -73 -56 -83 -53 -5 1 -6 -2 -3 -7 4 -5 1 -13 -6 -18 -16 -10 -113 -157
-158 -238 -18 -33 -36 -64 -41 -70 -5 -5 -9 -17 -9 -27 0 -10 -4 -18 -8 -18
-8 0 -32 -43 -32 -57 0 -3 7 0 15 7 8 6 19 9 26 5 8 -5 8 -10 0 -14 -13 -9
-44 -81 -34 -81 10 0 10 -66 0 -76 -4 -4 -7 2 -7 14 0 41 -19 31 -60 -30 -24
-35 -51 -72 -61 -83 -27 -30 -78 -158 -109 -275 -52 -196 -84 -558 -63 -706 7
-46 8 -47 14 -19 6 28 7 27 8 -12 0 -23 8 -77 16 -120 8 -43 15 -100 15 -128
0 -27 7 -81 16 -120 9 -38 18 -90 21 -115 5 -49 66 -246 115 -375 101 -266
352 -632 589 -860 382 -367 854 -604 1397 -702 134 -24 170 -27 412 -27 246 0
276 2 422 27 576 101 1060 354 1453 758 292 300 511 670 634 1070 120 392 143
871 62 1264 -63 298 -205 653 -347 866 -30 44 -54 83 -54 85 0 21 -193 258
-293 361 -370 380 -856 645 -1367 743 -254 50 -574 63 -796 35z m54 -32 c-10
-2 -26 -2 -35 0 -10 3 -2 5 17 5 19 0 27 -2 18 -5z m-2128 -1763 c-6 -11 -13
-20 -16 -20 -2 0 0 9 6 20 6 11 13 20 16 20 2 0 0 -9 -6 -20z m-210 -700 l-7
-85 -2 81 c-1 68 5 103 15 92 1 -2 -2 -41 -6 -88z m47 -632 c-3 -7 -5 -2 -5
12 0 14 2 19 5 13 2 -7 2 -19 0 -25z m10 -40 c-3 -8 -6 -5 -6 6 -1 11 2 17 5
13 3 -3 4 -12 1 -19z m194 -540 c10 -27 17 -48 14 -48 -13 0 -107 215 -104
239 0 8 65 -129 90 -191z m610 -835 c13 -16 12 -17 -3 -4 -10 7 -18 15 -18 17
0 8 8 3 21 -13z"/>
<path d="M1479 5109 l-24 -20 28 17 c15 9 27 18 27 20 0 8 -8 4 -31 -17z"/>
<path d="M1124 4808 l-29 -33 33 29 c17 17 32 31 32 33 0 8 -8 1 -36 -29z"/>
</g>
</svg>
